<mxfile host="app.diagrams.net" modified="2021-12-03T23:07:38.333Z" agent="5.0 (Windows NT 10.0; Win64; x64) AppleWebKit/537.36 (KHTML, like Gecko) Chrome/96.0.4664.45 Safari/537.36" etag="WF9CEHSefR1Q5KsrSw1U" version="15.9.1" type="github">
  <diagram id="NPYJEevP1J-ghoq3boTu" name="Page-1">
    <mxGraphModel dx="1038" dy="706" grid="1" gridSize="10" guides="1" tooltips="1" connect="1" arrows="1" fold="1" page="1" pageScale="1" pageWidth="850" pageHeight="1100" math="0" shadow="0">
      <root>
        <mxCell id="0" />
        <mxCell id="1" parent="0" />
        <mxCell id="QYwaldzeEjfnY050E-jA-4" style="edgeStyle=orthogonalEdgeStyle;rounded=0;orthogonalLoop=1;jettySize=auto;html=1;exitX=0.5;exitY=1;exitDx=0;exitDy=0;entryX=0;entryY=0;entryDx=50.625;entryDy=0;entryPerimeter=0;" edge="1" parent="1" source="QYwaldzeEjfnY050E-jA-1" target="QYwaldzeEjfnY050E-jA-2">
          <mxGeometry relative="1" as="geometry" />
        </mxCell>
        <mxCell id="QYwaldzeEjfnY050E-jA-1" value="Start" style="ellipse;whiteSpace=wrap;html=1;" vertex="1" parent="1">
          <mxGeometry x="110" width="120" height="80" as="geometry" />
        </mxCell>
        <mxCell id="QYwaldzeEjfnY050E-jA-7" value="" style="edgeStyle=orthogonalEdgeStyle;rounded=0;orthogonalLoop=1;jettySize=auto;html=1;" edge="1" parent="1" source="QYwaldzeEjfnY050E-jA-2" target="QYwaldzeEjfnY050E-jA-6">
          <mxGeometry relative="1" as="geometry" />
        </mxCell>
        <mxCell id="QYwaldzeEjfnY050E-jA-2" value="display screen from layout" style="shape=display;whiteSpace=wrap;html=1;" vertex="1" parent="1">
          <mxGeometry x="117.5" y="100" width="105" height="60" as="geometry" />
        </mxCell>
        <mxCell id="QYwaldzeEjfnY050E-jA-9" value="" style="edgeStyle=orthogonalEdgeStyle;rounded=0;orthogonalLoop=1;jettySize=auto;html=1;" edge="1" parent="1" source="QYwaldzeEjfnY050E-jA-6" target="QYwaldzeEjfnY050E-jA-8">
          <mxGeometry relative="1" as="geometry" />
        </mxCell>
        <mxCell id="QYwaldzeEjfnY050E-jA-6" value="initialization" style="verticalLabelPosition=middle;verticalAlign=middle;html=1;shape=hexagon;perimeter=hexagonPerimeter2;arcSize=6;size=0.27;labelPosition=center;align=center;" vertex="1" parent="1">
          <mxGeometry x="120" y="190" width="100" height="70" as="geometry" />
        </mxCell>
        <mxCell id="QYwaldzeEjfnY050E-jA-8" value="button click" style="shape=parallelogram;html=1;strokeWidth=2;perimeter=parallelogramPerimeter;whiteSpace=wrap;rounded=1;arcSize=12;size=0.23;" vertex="1" parent="1">
          <mxGeometry x="120" y="300" width="100" height="60" as="geometry" />
        </mxCell>
        <mxCell id="QYwaldzeEjfnY050E-jA-12" value="" style="edgeStyle=orthogonalEdgeStyle;rounded=0;orthogonalLoop=1;jettySize=auto;html=1;" edge="1" parent="1" source="QYwaldzeEjfnY050E-jA-8" target="QYwaldzeEjfnY050E-jA-10">
          <mxGeometry relative="1" as="geometry" />
        </mxCell>
        <mxCell id="QYwaldzeEjfnY050E-jA-14" value="" style="edgeStyle=orthogonalEdgeStyle;rounded=0;orthogonalLoop=1;jettySize=auto;html=1;" edge="1" parent="1" source="QYwaldzeEjfnY050E-jA-10" target="QYwaldzeEjfnY050E-jA-13">
          <mxGeometry relative="1" as="geometry" />
        </mxCell>
        <mxCell id="QYwaldzeEjfnY050E-jA-33" value="" style="edgeStyle=orthogonalEdgeStyle;rounded=0;orthogonalLoop=1;jettySize=auto;html=1;" edge="1" parent="1" source="QYwaldzeEjfnY050E-jA-10" target="QYwaldzeEjfnY050E-jA-32">
          <mxGeometry relative="1" as="geometry" />
        </mxCell>
        <mxCell id="QYwaldzeEjfnY050E-jA-10" value="digit or dot?" style="strokeWidth=2;html=1;shape=mxgraph.flowchart.decision;whiteSpace=wrap;" vertex="1" parent="1">
          <mxGeometry x="120" y="390" width="100" height="100" as="geometry" />
        </mxCell>
        <mxCell id="QYwaldzeEjfnY050E-jA-17" value="" style="edgeStyle=orthogonalEdgeStyle;rounded=0;orthogonalLoop=1;jettySize=auto;html=1;" edge="1" parent="1" source="QYwaldzeEjfnY050E-jA-13" target="QYwaldzeEjfnY050E-jA-16">
          <mxGeometry relative="1" as="geometry" />
        </mxCell>
        <mxCell id="QYwaldzeEjfnY050E-jA-13" value="Read number" style="shape=parallelogram;perimeter=parallelogramPerimeter;whiteSpace=wrap;html=1;fixedSize=1;strokeWidth=2;" vertex="1" parent="1">
          <mxGeometry x="110" y="590" width="120" height="60" as="geometry" />
        </mxCell>
        <mxCell id="QYwaldzeEjfnY050E-jA-15" value="digit" style="text;html=1;align=center;verticalAlign=middle;resizable=0;points=[];autosize=1;strokeColor=none;fillColor=none;" vertex="1" parent="1">
          <mxGeometry x="170" y="530" width="40" height="20" as="geometry" />
        </mxCell>
        <mxCell id="QYwaldzeEjfnY050E-jA-19" value="" style="edgeStyle=orthogonalEdgeStyle;rounded=0;orthogonalLoop=1;jettySize=auto;html=1;" edge="1" parent="1" source="QYwaldzeEjfnY050E-jA-16" target="QYwaldzeEjfnY050E-jA-18">
          <mxGeometry relative="1" as="geometry" />
        </mxCell>
        <mxCell id="QYwaldzeEjfnY050E-jA-27" value="" style="edgeStyle=orthogonalEdgeStyle;rounded=0;orthogonalLoop=1;jettySize=auto;html=1;" edge="1" parent="1" source="QYwaldzeEjfnY050E-jA-16" target="QYwaldzeEjfnY050E-jA-26">
          <mxGeometry relative="1" as="geometry" />
        </mxCell>
        <mxCell id="QYwaldzeEjfnY050E-jA-16" value="null" style="rhombus;whiteSpace=wrap;html=1;strokeWidth=2;" vertex="1" parent="1">
          <mxGeometry x="130" y="720" width="80" height="80" as="geometry" />
        </mxCell>
        <mxCell id="QYwaldzeEjfnY050E-jA-25" value="" style="edgeStyle=orthogonalEdgeStyle;rounded=0;orthogonalLoop=1;jettySize=auto;html=1;" edge="1" parent="1" source="QYwaldzeEjfnY050E-jA-18" target="QYwaldzeEjfnY050E-jA-23">
          <mxGeometry relative="1" as="geometry" />
        </mxCell>
        <mxCell id="QYwaldzeEjfnY050E-jA-18" value="perform pending operation" style="shape=process;whiteSpace=wrap;html=1;backgroundOutline=1;strokeWidth=2;" vertex="1" parent="1">
          <mxGeometry x="110" y="890" width="120" height="60" as="geometry" />
        </mxCell>
        <mxCell id="QYwaldzeEjfnY050E-jA-20" value="No" style="text;html=1;align=center;verticalAlign=middle;resizable=0;points=[];autosize=1;strokeColor=none;fillColor=none;" vertex="1" parent="1">
          <mxGeometry x="180" y="830" width="30" height="20" as="geometry" />
        </mxCell>
        <mxCell id="QYwaldzeEjfnY050E-jA-23" value="display result" style="shape=display;whiteSpace=wrap;html=1;" vertex="1" parent="1">
          <mxGeometry x="118.75" y="1010" width="102.5" height="50" as="geometry" />
        </mxCell>
        <mxCell id="QYwaldzeEjfnY050E-jA-31" value="" style="edgeStyle=orthogonalEdgeStyle;rounded=0;orthogonalLoop=1;jettySize=auto;html=1;" edge="1" parent="1" source="QYwaldzeEjfnY050E-jA-26" target="QYwaldzeEjfnY050E-jA-30">
          <mxGeometry relative="1" as="geometry" />
        </mxCell>
        <mxCell id="QYwaldzeEjfnY050E-jA-26" value="store new pending operation" style="whiteSpace=wrap;html=1;strokeWidth=2;" vertex="1" parent="1">
          <mxGeometry x="270" y="730" width="120" height="60" as="geometry" />
        </mxCell>
        <mxCell id="QYwaldzeEjfnY050E-jA-28" value="Yes" style="text;html=1;align=center;verticalAlign=middle;resizable=0;points=[];autosize=1;strokeColor=none;fillColor=none;" vertex="1" parent="1">
          <mxGeometry x="220" y="730" width="40" height="20" as="geometry" />
        </mxCell>
        <mxCell id="QYwaldzeEjfnY050E-jA-29" value="" style="endArrow=classic;html=1;rounded=0;exitX=1;exitY=0.5;exitDx=0;exitDy=0;exitPerimeter=0;entryX=0.5;entryY=1;entryDx=0;entryDy=0;" edge="1" parent="1" source="QYwaldzeEjfnY050E-jA-23" target="QYwaldzeEjfnY050E-jA-26">
          <mxGeometry width="50" height="50" relative="1" as="geometry">
            <mxPoint x="400" y="870" as="sourcePoint" />
            <mxPoint x="450" y="820" as="targetPoint" />
            <Array as="points">
              <mxPoint x="330" y="1035" />
            </Array>
          </mxGeometry>
        </mxCell>
        <mxCell id="QYwaldzeEjfnY050E-jA-30" value="display pending operation" style="shape=display;whiteSpace=wrap;html=1;" vertex="1" parent="1">
          <mxGeometry x="470" y="725" width="110" height="70" as="geometry" />
        </mxCell>
        <mxCell id="QYwaldzeEjfnY050E-jA-32" value="append to number" style="whiteSpace=wrap;html=1;strokeWidth=2;" vertex="1" parent="1">
          <mxGeometry x="290" y="410" width="120" height="60" as="geometry" />
        </mxCell>
        <mxCell id="QYwaldzeEjfnY050E-jA-34" value="dot" style="text;html=1;align=center;verticalAlign=middle;resizable=0;points=[];autosize=1;strokeColor=none;fillColor=none;" vertex="1" parent="1">
          <mxGeometry x="245" y="420" width="30" height="20" as="geometry" />
        </mxCell>
        <mxCell id="QYwaldzeEjfnY050E-jA-35" value="" style="endArrow=classic;html=1;rounded=0;exitX=0.5;exitY=0;exitDx=0;exitDy=0;" edge="1" parent="1" source="QYwaldzeEjfnY050E-jA-32" target="QYwaldzeEjfnY050E-jA-8">
          <mxGeometry width="50" height="50" relative="1" as="geometry">
            <mxPoint x="400" y="560" as="sourcePoint" />
            <mxPoint x="450" y="510" as="targetPoint" />
            <Array as="points">
              <mxPoint x="350" y="330" />
            </Array>
          </mxGeometry>
        </mxCell>
        <mxCell id="QYwaldzeEjfnY050E-jA-36" value="" style="endArrow=classic;html=1;rounded=0;entryX=1;entryY=0.25;entryDx=0;entryDy=0;" edge="1" parent="1" target="QYwaldzeEjfnY050E-jA-8">
          <mxGeometry width="50" height="50" relative="1" as="geometry">
            <mxPoint x="530" y="720" as="sourcePoint" />
            <mxPoint x="450" y="610" as="targetPoint" />
            <Array as="points">
              <mxPoint x="530" y="317" />
            </Array>
          </mxGeometry>
        </mxCell>
      </root>
    </mxGraphModel>
  </diagram>
</mxfile>
